<?xml version="1.0" encoding="UTF-8"?>
<svg id="Livello_2" data-name="Livello 2" xmlns="http://www.w3.org/2000/svg" viewBox="0 0 360.06 264.08">
  <defs>
    <style>
      .cls-1 {
        stroke-width: 0px;
      }
    </style>
  </defs>
  <g id="Livello_1-2" data-name="Livello 1">
    <g>
      <path class="cls-1" d="m180.11,0c49.13,0,98.25,0,147.38,0,20.07,0,32.56,12.45,32.56,32.44,0,66.39,0,132.78,0,199.16,0,20.01-12.49,32.47-32.54,32.47-98.38,0-196.76,0-295.14,0C12.59,264.08,0,251.54,0,231.82c0-66.51,0-133.03,0-199.54C0,12.52,12.55,0,32.35,0,81.61,0,130.86,0,180.11,0Zm167.95,60.29H12v4.36c0,55.64,0,111.28,0,166.93,0,13.49,7.05,20.49,20.63,20.49,98.26,0,196.53,0,294.79,0,13.56,0,20.63-7.02,20.63-20.49,0-55.77,0-111.53,0-167.3v-3.99ZM12.04,47.8h336.01c0-5.19,0-10.16,0-15.13,0-13.72-6.99-20.66-20.81-20.66-98.09,0-196.18,0-294.27,0-1.37,0-2.75-.04-4.12.05-8.91.56-16.35,7.81-16.75,16.72-.28,6.22-.05,12.47-.05,19.03Z"/>
      <path class="cls-1" d="m61.94,201.55c-5.08.7-8.8,1.15-12.5,1.75-1.93.31-2.9-.36-3.63-2.18-3.3-8.22-6.67-16.42-10.16-24.56-.8-1.87-.49-2.89,1.13-4.02,2.86-2.01,5.47-4.38,8.37-6.32,1.95-1.3,2.39-2.79,2.24-5.01-.23-3.48-.26-7.01.02-10.49.19-2.31-.53-3.68-2.39-4.95-2.88-1.98-5.69-4.09-8.28-6.43-.81-.73-1.42-2.62-1.05-3.57,3.26-8.37,6.82-16.62,10.16-24.96.77-1.91,1.9-2.3,3.73-2.01,3.45.55,6.94.91,10.38,1.48,2.18.36,3.72-.15,5.15-1.98,1.77-2.24,3.7-4.53,6.02-6.12,3.25-2.24,3.46-4.92,2.87-8.39-1.85-10.86-1.76-10.86,8.38-15,5.66-2.31,11.33-4.59,16.94-7.03,1.72-.75,2.84-.88,4.09.85,2.63,3.63,4.84,8.39,8.47,10.24,3.47,1.77,8.54.19,12.87.55,2.75.23,4.42-.59,5.87-2.82,1.49-2.3,3.5-4.27,4.93-6.6,1.66-2.71,3.38-3.19,6.36-1.84,7.5,3.39,15.14,6.48,22.79,9.52,2.11.84,3.15,1.94,2.45,4.13-2.8,8.82-1.06,15.87,6.77,21.65,2.62,1.93,4.53,3.43,7.76,2.67,1.57-.37,3.21-.47,4.82-.65q6.71-.77,9.23,5.33c2.81,6.8,5.53,13.65,8.49,20.39.93,2.13.65,3.31-1.27,4.61-2.89,1.95-5.72,4.06-8.27,6.43-1.07,1-1.8,2.8-1.92,4.29-.27,3.35.27,6.78-.13,10.1-.35,2.95.71,4.62,2.99,6.16,2.69,1.81,5.31,3.77,7.69,5.96.8.74,1.38,2.63,1.01,3.58-3.26,8.37-6.82,16.62-10.16,24.96-.77,1.93-1.91,2.27-3.74,1.98-3.45-.55-6.94-.88-10.38-1.46-2.19-.37-3.72.18-5.16,1.98-1.78,2.23-3.7,4.53-6.02,6.13-3.25,2.24-3.46,4.92-2.87,8.39,1.84,10.86,1.75,10.87-8.37,15.02-5.66,2.32-11.34,4.58-16.93,7.06-2,.89-3.29.68-4.28-1.25-4.29-8.44-10.8-11.99-20.48-10.55-3.1.46-5.23.89-7.05,3.5-2.19,3.14-4.34,7.58-7.39,8.49-2.82.84-6.83-2.2-10.28-3.61-5.31-2.17-10.56-4.5-15.92-6.56-2.09-.8-3.21-1.89-2.47-4.1,3.05-9.06.88-16.34-7.15-21.76-1.57-1.06-2.99-2.37-3.77-3Zm128.76-23.46c-3.14-2.42-6.3-4.66-9.19-7.19-.91-.8-1.52-2.4-1.55-3.64-.14-7.46-.14-14.93,0-22.39.02-1.25.62-2.86,1.52-3.66,2.89-2.54,6.05-4.77,9.21-7.21-1.51-3.67-2.82-7.17-4.44-10.52-.38-.79-1.82-1.55-2.73-1.5-2.98.16-5.97.59-8.91,1.12-2.24.4-3.6-.29-5.01-2.14-2.57-3.36-5.01-7.28-8.47-9.41-7.66-4.72-9.66-10.79-7.08-19.03.23-.72-.67-2.36-1.46-2.74-3.35-1.62-6.86-2.92-10.52-4.42-2.44,3.16-4.67,6.31-7.21,9.2-.8.9-2.4,1.5-3.65,1.53-7.46.14-14.93.14-22.39,0-1.25-.02-2.87-.61-3.66-1.51-2.54-2.89-4.76-6.06-7.18-9.21-3.68,1.51-7.18,2.82-10.53,4.43-.79.38-1.57,1.82-1.51,2.72.19,3.23.92,6.44,1.05,9.67.05,1.22-.68,2.78-1.56,3.69-5.09,5.28-10.29,10.47-15.57,15.55-.92.88-2.46,1.66-3.67,1.6-3.84-.22-7.66-.85-11.75-1.36-1.7,4.09-3.37,8.08-5.13,12.31,3.17,2.43,6.33,4.65,9.22,7.19.9.79,1.5,2.41,1.52,3.66.14,7.46.13,14.93,0,22.39-.02,1.26-.59,2.89-1.49,3.68-2.89,2.54-6.06,4.76-9.23,7.19,1.51,3.66,2.82,7.16,4.44,10.51.38.79,1.82,1.55,2.73,1.5,3.11-.17,6.19-.96,9.3-1,1.44-.02,3.2.81,4.28,1.82,5.14,4.88,10.16,9.9,15.05,15.03,1.02,1.07,1.89,2.86,1.84,4.28-.13,3.71-.81,7.41-1.31,11.38,4.18,1.72,8.26,3.4,12.34,5.08,2.53-3.29,4.69-6.37,7.16-9.17.8-.9,2.4-1.51,3.65-1.53,7.46-.14,14.93-.14,22.39,0,1.25.02,2.87.6,3.66,1.51,2.54,2.89,4.78,6.05,7.23,9.22,3.64-1.49,7.14-2.79,10.5-4.4.79-.38,1.54-1.83,1.49-2.75-.17-3.11-.96-6.2-1-9.3-.02-1.43.8-3.23,1.84-4.26,6.07-7.21,7.38-5.29,9.58-8.85,4.73-7.67,10.79-9.67,19.04-7.08.71.22,2.34-.69,2.71-1.47,1.62-3.35,2.93-6.85,4.45-10.54Z"/>
      <path class="cls-1" d="m264.04,102.11h-47.73v-12.01h47.73c0-3.96-.05-7.55.01-11.13.08-4.68,2.24-6.89,6.9-6.93,7.37-.06,14.73-.06,22.1,0,4.68.04,6.87,2.23,6.98,6.86.08,3.49.08,6.99.13,10.48,0,.09.16.18.49.54h23.11v12.03h-23.73c0,3.98.05,7.56-.01,11.15-.08,4.65-2.28,6.87-6.94,6.91-7.37.06-14.73.06-22.1,0-4.67-.04-6.86-2.25-6.94-6.9-.06-3.49-.01-6.99-.01-11.01Zm23.73,5.76v-23.67h-11.52v23.67h11.52Z"/>
      <path class="cls-1" d="m323.89,149.91v12h-59.84c0,3.66.02,7.1,0,10.53-.04,5.44-2.08,7.58-7.38,7.61-7.12.04-14.23.04-21.35,0-5.11-.03-7.2-2.18-7.26-7.34-.04-3.12-.02-6.24-.04-9.37,0-.24-.09-.48-.21-1.13h-11.52v-12.04h11.76c0-3.82-.04-7.38,0-10.95.06-4.94,2.18-7.12,7.05-7.16,7.24-.05,14.48-.05,21.73,0,5.07.03,7.16,2.21,7.21,7.39.03,3.36,0,6.72,0,10.46h59.84Zm-71.92-5.55h-11.67v23.4h11.67v-23.4Z"/>
      <path class="cls-1" d="m288.05,210.07h35.71v11.89h-35.71c0,3.96.05,7.54-.01,11.12-.08,4.68-2.25,6.93-6.87,6.97-7.37.07-14.73.06-22.1,0-4.83-.04-6.94-2.26-7.01-7.21-.05-3.37-.08-6.74-.12-10.11,0-.09-.15-.19-.45-.55h-35.15v-12.02h35.71c0-3.96-.04-7.55.01-11.12.07-4.69,2.23-6.92,6.87-6.96,7.37-.07,14.73-.06,22.1,0,4.84.04,6.95,2.25,7.02,7.2.04,3.47,0,6.93,0,10.79Zm-23.75-5.83v23.54h11.56v-23.54h-11.56Z"/>
      <path class="cls-1" d="m323.88,24.27v11.55h-143.54v-11.55h143.54Z"/>
      <path class="cls-1" d="m47.8,35.84h-11.52v-11.59h11.52v11.59Z"/>
      <path class="cls-1" d="m60.29,24.16h11.51v11.67h-11.51v-11.67Z"/>
      <path class="cls-1" d="m84.26,24.08h11.45v11.65h-11.45v-11.65Z"/>
      <path class="cls-1" d="m119.96,192.04c-19.88-.06-35.95-16.19-35.94-36.05.02-19.82,16.28-36.03,36.04-35.95,20.01.09,36.07,16.37,35.95,36.44-.12,19.56-16.41,35.62-36.06,35.56Zm24.06-36.08c0-13.22-10.87-23.98-24.17-23.92-13.08.06-23.79,10.79-23.83,23.88-.04,13.28,10.74,24.14,23.97,24.12,13.26-.01,24.03-10.82,24.03-24.08Z"/>
    </g>
  </g>
</svg>