<?xml version="1.0" encoding="UTF-8"?>
<svg id="Livello_2" data-name="Livello 2" xmlns="http://www.w3.org/2000/svg" viewBox="0 0 384 384">
  <defs>
    <style>
      .cls-1 {
        stroke-width: 0px;
      }
    </style>
  </defs>
  <g id="Livello_1-2" data-name="Livello 1">
    <g>
      <path class="cls-1" d="m384,345.75v9c-.28.95-.59,1.88-.82,2.84-2.39,9.71-7.73,17.32-16.59,22.03-3.68,1.96-7.88,2.95-11.84,4.38h-9c-10.5-1.88-18.11-8.25-25.25-15.69-10.21-10.64-20.84-20.87-31.19-31.38-1.76-1.79-3.18-2.39-5.78-1.58-41.62,12.89-85.46-10.21-98.41-51.78-1.21-3.9-2.05-7.92-3.11-12.07h-4.54c-54.12,0-108.24-.08-162.36.1-6.96.02-12.11-1.88-15.11-8.35V8.25C1.8,4.55,4.54,1.79,8.25,0h277.5c6.51,2.97,8.38,8.13,8.35,15.1-.18,56.72-.09,113.44-.13,170.16,0,2.37.21,4,2.76,5.36,34.16,18.22,49.82,56.21,38.53,93.29-.7,2.31-.15,3.57,1.45,5.14,10.49,10.35,20.72,20.98,31.36,31.18,7.54,7.22,14.03,14.89,15.93,25.52Zm-112.77-163.54v-114.39H22.72v181.01h159.53c3.61-21.26,13.64-38.62,30.83-51.52,17.19-12.89,36.63-17.7,58.15-15.1Zm45.27,78.02c0-30.99-25.26-56.23-56.25-56.23-30.99,0-56.24,25.26-56.23,56.25,0,30.97,25.29,56.25,56.26,56.25,30.97,0,56.24-25.29,56.23-56.27ZM22.69,44.75h203.52v-22.07H22.69v22.07Zm285.79,279.73c10.36,10.33,21.41,21.34,32.47,32.36.44.44.87.9,1.33,1.32,3.08,2.74,6.58,4.02,10.69,2.93,8.78-2.33,11.39-12.51,4.77-19.26-11.03-11.22-22.22-22.29-33.35-33.4-.31-.31-.76-.48-1.15-.71.3.4.59.81.89,1.21-5.11,5.08-10.22,10.16-15.64,15.55ZM249.19,22.66v22.12h22.05v-22.12h-22.05Z"/>
      <path class="cls-1" d="m75.31,159.05c11.23,8.29,21.97,16.23,32.71,24.15,4.1,3.03,6.03,7.01,4.88,12.05-1.87,8.16-10.99,11.29-18.06,6.15-12.01-8.74-23.92-17.62-35.87-26.45-3.11-2.3-6.29-4.52-9.32-6.92-6.2-4.91-6.38-13.23-.08-17.97,15.16-11.41,30.45-22.64,45.79-33.81,5.28-3.85,11.99-2.68,15.65,2.3,3.67,5,2.85,11.74-2.31,15.66-9.75,7.39-19.66,14.57-29.5,21.84-1.18.87-2.32,1.79-3.89,3Z"/>
      <path class="cls-1" d="m218.89,158.91c-10.94-8.22-21.41-16.11-31.92-23.94-4.06-3.02-6.22-6.89-5.18-11.97,1.7-8.34,11.05-11.63,18.22-6.34,12.16,8.97,24.2,18.11,36.3,27.17,2.7,2.02,5.46,3.97,8.08,6.09,6.17,4.97,6.36,13.24.08,18.04-14.89,11.38-29.9,22.59-44.97,33.72-5.29,3.91-11.96,2.79-15.69-2.17-3.81-5.07-2.87-11.8,2.49-15.91,9.72-7.44,19.56-14.73,29.34-22.09.97-.73,1.91-1.52,3.25-2.6Z"/>
      <path class="cls-1" d="m169.48,125.93c-.12.55-.28,1.92-.71,3.21-7.38,22.24-14.76,44.47-22.22,66.68-1.84,5.46-6.4,8.5-11.64,8.13-4.83-.34-9.03-3.77-9.99-8.69-.39-1.99-.31-4.3.32-6.22,7.34-22.38,14.79-44.73,22.3-67.05,1.91-5.66,7.08-8.75,12.48-7.88,5.32.86,9.36,5.56,9.46,11.81Z"/>
    </g>
  </g>
</svg>