<?xml version="1.0" encoding="UTF-8"?>
<svg id="Livello_2" data-name="Livello 2" xmlns="http://www.w3.org/2000/svg" viewBox="0 0 600 600">
  <defs>
    <style>
      .cls-1 {
        fill: #fff;
      }

      .cls-1, .cls-2 {
        stroke-width: 0px;
      }

      .cls-2 {
        fill: #3caf3c;
      }
    </style>
  </defs>
  <g id="Livello_1-2" data-name="Livello 1">
    <g>
      <circle class="cls-2" cx="300" cy="300" r="300"/>
      <path class="cls-1" d="m210.5,108.35c9.73,37.64,19.35,74.87,29.25,113.19-3.12-.26-5.17-.19-7.11-.64-3.89-.9-7.67-2.26-11.57-3.1-5.99-1.29-11.14,4.29-8.86,9.89,2.56,6.3,5.33,12.61,8.84,18.42,15.34,25.35,31.02,50.5,46.5,75.76,15.23,24.84,30.36,49.75,45.58,74.6,2.52,4.12,5.19,8.15,7.9,12.14,1.49,2.19,2.99,4.46,4.89,6.28,5.47,5.23,12.2,3.34,14.17-3.9,1.31-4.81,2.4-9.67,3.65-14.5.1-.4.67-.68,1.57-1.53,3.8,3.04,7.76,5.97,11.44,9.21,23.4,20.56,46.78,41.16,70.09,61.83,5.48,4.86,5.33,6.27-1.15,9.44-17.86,8.74-36.44,15.81-55.96,19.38-7.34,1.34-15.55-.34-23.05-2.03-13.2-2.96-24.17-10.85-35.58-17.75-39.84-24.09-73.09-55.12-98.74-93.98-25.47-38.58-46.04-79.41-55.72-125.13-5.06-23.91-7.53-47.96-6.38-72.35.52-10.98,3.37-21.1,10.45-30.08,13.22-16.77,29.03-30.67,45.92-43.5.74-.56,1.76-.77,3.87-1.66Z"/>
      <path class="cls-1" d="m439.2,464.68c-6.11-5.03-11.16-9.02-16.03-13.21-23.47-20.18-46.9-40.4-70.35-60.62-4.7-4.05-4.71-5.24.66-8.2,5.53-3.05,11.31-5.64,16.9-8.59,4.07-2.15,7.33-1.59,10.83,1.51,16.7,14.78,33.56,29.37,50.37,44.03,4.89,4.27,10,8.31,14.58,12.89,1.63,1.63,3.29,4.94,2.71,6.78-2.61,8.17-6.02,16.08-9.66,25.41Z"/>
      <path class="cls-1" d="m217.82,103.74c10.19,1.58,19.49,2.88,28.71,4.61,1.25.23,2.65,2.45,3.05,3.99,7.59,29.26,15.09,58.54,22.41,87.87.41,1.66-.31,4.48-1.55,5.53-5.58,4.72-11.43,9.14-17.38,13.39-3.92,2.8-5.53,2.22-6.73-2.35-9.38-35.65-18.67-71.33-27.95-107.01-.37-1.41-.29-2.93-.56-6.02Z"/>
    </g>
  </g>
</svg>