<?xml version="1.0" encoding="utf-8"?>
<!-- Generator: Adobe Illustrator 27.9.1, SVG Export Plug-In . SVG Version: 6.00 Build 0)  -->
<svg version="1.1" id="Livello_2_00000052071625828839677870000015321749682232319924_"
	 xmlns="http://www.w3.org/2000/svg" xmlns:xlink="http://www.w3.org/1999/xlink" x="0px" y="0px" viewBox="0 0 399.9 331.9"
	 style="enable-background:new 0 0 399.9 331.9;" xml:space="preserve">
<g id="Livello_1-2">
	<g>
		<path d="M0,102.8c0.6-3,1.2-6.1,1.9-9.1c4.7-22.3,16.9-40.1,33.9-54.6C62.6,16.2,94.3,5,129,1.2c31.2-3.3,61.6-0.1,90.9,11.1
			c28.2,10.8,52.6,27,68.5,53.5c15.6,25.8,17.5,52.9,4.6,80.5c-10.4,22.3-27.5,38.4-48.5,50.3c-41.4,23.4-85.6,29.1-132,20
			c-2.8-0.6-4.9-0.2-7.2,1.4c-24.1,16.8-48.3,33.5-72.5,50.2c-1.3,0.9-2.6,1.7-4.5,2.2c12.1-23.1,24.3-46.2,36.2-68.9
			c-8.5-5.8-17.1-10.9-24.9-17.1c-19.7-15.5-33.6-35-38.2-60.2c-0.4-2.1-0.8-4.3-1.2-6.4C0,112.7,0,107.8,0,102.8z M231.5,122.2
			V90.6h-31.3v31.5H231.5z M71.9,90.6v31.5h31V90.6H71.9z M136,122.1h31.2V90.6H136V122.1z"/>
		<path d="M338.9,265.2c11.6,22.1,23,43.8,35.1,66.6c-2.1-1.3-3.2-1.9-4.3-2.7c-23-15.9-46-31.8-69-47.7c-2-1.4-3.8-2.1-6.4-1.5
			c-33,6.9-65.4,4.8-97.3-6.1c-18.1-6.2-34.7-15.3-49-28.2c-0.6-0.5-1-1.1-1.8-2c24.3,0.2,47.7-2.7,70.5-9.7
			c35.1-10.8,66-28.3,88.6-58c19-24.9,26.4-53,19.8-84.1c-0.2-1-0.5-2-0.6-3c0-0.2,0.1-0.5,0.3-1c19.1,7.5,36.2,18,50.4,33.1
			c10.1,10.8,17.9,23,21.8,37.4c8,29.2,0.1,54.7-19.1,77.2c-9.5,11.1-21,19.8-33.7,26.9C342.4,263.3,340.8,264.1,338.9,265.2
			L338.9,265.2z"/>
	</g>
</g>
</svg>
