<?xml version="1.0" encoding="UTF-8"?>
<svg id="Livello_2" data-name="Livello 2" xmlns="http://www.w3.org/2000/svg" viewBox="0 0 95.87 122.89">
  <defs>
    <style>
      .cls-1, .cls-2, .cls-3, .cls-4 {
        stroke-width: 0px;
      }

      .cls-2 {
        fill: #2965f1;
      }

      .cls-3 {
        fill: #fff;
      }

      .cls-4 {
        fill: #264de4;
      }
    </style>
  </defs>
  <g id="Livello_2-2" data-name="Livello 2">
    <g id="Livello_1-2" data-name="Livello 1-2">
      <g id="css">
        <polygon class="cls-3" points="0 0 95.87 0 85.04 113.25 47.72 122.89 10.47 113.25 0 0"/>
        <path class="cls-4" d="m47.78,23.62h40.4c1.71,0,1.81.06,1.71,1.75-.17,2.78-.45,5.56-.66,8.34-.25,3.18-.46,6.36-.72,9.54-.56,6.99-1.09,13.99-1.71,20.97-.55,6.11-1.23,12.21-1.8,18.32-.17,1.79-.09,3.6-.26,5.38-.53,5.67-1.14,11.33-1.69,17-.15,1.51-.14,3.03-.29,4.54-.04.39-.37.99-.69,1.09-2.31.73-4.64,1.36-6.97,2.01-3.06.85-6.12,1.7-9.18,2.54-3.1.85-6.21,1.68-9.31,2.55-2.22.62-4.46,1.17-6.62,1.96-1.97.72-3.77.18-5.61-.3-3.3-.87-6.59-1.81-9.88-2.74-2.71-.77-5.41-1.58-8.13-2.34-3.21-.9-6.43-1.76-9.65-2.65-1.07-.3-2.16-.57-3.19-.99-.35-.14-.74-.66-.78-1.04-.44-4.68-.8-9.37-1.23-14.06-.52-5.71-1.11-11.42-1.62-17.14-.23-2.62-.31-5.26-.54-7.88-.5-5.52-1.1-11.02-1.57-16.54-.42-4.88-.69-9.78-1.08-14.66-.2-2.5-.58-4.99-.79-7.49-.2-2.36-.28-4.75-.4-7.14-.03-.69.32-1.03,1.02-1.04.68,0,1.36-.01,2.04-.01h39.2s0,.03,0,.03Zm-.03,17.61h0c-8.19,0-16.39,0-24.58.02-1.85,0-2.12.25-1.98,1.82.23,2.58.51,5.16.73,7.74.08.9.44,1.22,1.36,1.21,5.88-.06,11.75-.06,17.63-.08.32,0,.76-.1.93.07.21.21.33.68.24.96-.07.22-.51.33-.8.47-5.69,2.82-11.37,5.64-17.07,8.44-.86.42-1.28.99-1.17,1.98.34,3.09.62,6.19,1.01,9.28.04.31.66.77,1.01.78,6.4.03,12.79,0,19.19-.02,4.88-.02,9.75-.05,14.63-.1.86,0,1.56.12,1.5,1.19-.21,3.71-.43,7.41-.64,11.12-.05.91-.48,1.43-1.4,1.68-2.99.83-5.95,1.81-8.96,2.55-1.08.27-2.34.27-3.41,0-2.93-.73-5.8-1.72-8.73-2.49-1.17-.3-1.53-.9-1.52-2.02,0-1.72-.05-3.44-.16-5.15-.09-1.5-.31-1.69-1.84-1.72-2.48-.04-4.95-.04-7.43-.07-1.57-.02-1.9.36-1.72,1.93.16,1.42.27,2.86.41,4.28.28,2.9.59,5.79.82,8.69.1,1.3.83,1.86,1.99,2.18,6.22,1.72,12.41,3.51,18.65,5.17.97.26,2.15.08,3.15-.18,2.97-.77,5.89-1.7,8.84-2.53,3.3-.92,6.62-1.79,9.93-2.67.83-.22,1.27-.7,1.35-1.59.23-2.42.57-4.83.77-7.26.59-6.88,1.14-13.75,1.71-20.63.06-.72.16-1.43.22-2.14.06-.73-.25-1.1-1.04-1.09-5.28.04-10.55.07-15.83.07-.67,0-1.34-.19-2.01-.29.48-.51.86-1.21,1.44-1.51,5.69-2.89,11.43-5.71,17.14-8.57.89-.44,1.46-1.15,1.53-2.22.15-2.47.34-4.93.52-7.4.13-1.71-.03-1.91-1.7-1.91h-24.71Z"/>
        <path class="cls-2" d="m51.78,29.6v83.25l27.32-7.43,5.59-75.82h-32.92,0Z"/>
        <path class="cls-3" d="m47.75,41.23h24.7c1.67,0,1.82.19,1.7,1.91-.18,2.47-.37,4.93-.52,7.4-.07,1.07-.64,1.77-1.53,2.22-5.71,2.86-11.44,5.68-17.14,8.57-.59.3-.97.99-1.44,1.51.67.1,1.34.29,2.01.29,5.28,0,10.55-.03,15.83-.07.79,0,1.1.36,1.04,1.09-.05.72-.16,1.43-.22,2.14-.57,6.88-1.12,13.76-1.71,20.63-.21,2.42-.54,4.84-.77,7.26-.09.89-.52,1.37-1.35,1.59-3.31.88-6.63,1.75-9.93,2.67-2.95.82-5.88,1.76-8.84,2.53-1.01.26-2.18.43-3.15.18-6.23-1.65-12.43-3.45-18.65-5.17-1.16-.32-1.88-.88-1.99-2.18-.23-2.9-.54-5.8-.82-8.69-.14-1.43-.25-2.86-.41-4.28-.18-1.57.15-1.95,1.72-1.93,2.48.03,4.96.02,7.43.07,1.53.03,1.75.22,1.84,1.72.1,1.71.17,3.43.16,5.15,0,1.12.35,1.72,1.52,2.02,2.93.76,5.79,1.76,8.73,2.49,1.08.27,2.34.27,3.41,0,3.01-.75,5.97-1.72,8.96-2.55.92-.25,1.34-.78,1.4-1.68.21-3.71.44-7.41.64-11.12.06-1.08-.64-1.2-1.5-1.19-4.88.05-9.75.08-14.63.1-6.4.03-12.79.05-19.19.02-.35,0-.98-.47-1.01-.78-.39-3.09-.67-6.18-1.01-9.28-.11-.99.32-1.56,1.17-1.98,5.7-2.8,11.38-5.62,17.07-8.44.29-.14.73-.25.8-.47.09-.28-.03-.76-.24-.96-.17-.17-.61-.07-.93-.07-5.88.02-11.75.02-17.63.08-.92,0-1.29-.31-1.36-1.21-.22-2.58-.5-5.16-.73-7.74-.14-1.57.13-1.81,1.98-1.82h24.58v-.03Z"/>
        <g>
          <path class="cls-1" d="m47.02,19.82c-2.04,0-4.07-.04-6.11.02-1.01.03-1.41-.35-1.51-1.36-.27-2.82-.17-2.94,2.68-2.9,2.32.03,4.63.02,6.95.05.78.01,1.36-.12,1.36-1.06s-.71-.8-1.28-.8c-2.59.02-5.19.04-7.78.1-1.45.04-1.83-.21-1.86-1.62-.05-2.35-.03-4.71-.05-7.06,0-.92.39-1.22,1.32-1.22,4.23.02,8.46-.03,12.69-.06,1.03,0,1.25.4,1.19,2.6-.02.79.16,1.69-1.25,1.63-2.91-.12-5.83-.05-8.74-.08-.79,0-1.03.4-1.07,1.11-.04.78.31,1.12,1.04,1.11,2.75-.04,5.51-.03,8.25-.15,1.43-.06,1.71.02,1.74,1.49.06,2.31,0,4.63.03,6.94,0,.89-.43,1.21-1.25,1.21h-6.34v.04h-.01Z"/>
          <path class="cls-1" d="m63.73,3.95c2.23,0,4.47,0,6.7,0,.72,0,1.1.21,1.18.99.3,2.94.15,3.13-2.74,3.12-2.28,0-4.55.03-6.83.01-.82,0-1.29.3-1.31,1.16-.02.89.61,1.05,1.29,1.04,2.59-.02,5.19-.02,7.78-.12,1.49-.06,1.81.1,1.83,1.58.03,2.28,0,4.55.03,6.83.01.83-.39,1.18-1.14,1.18-4.23,0-8.47-.02-12.7-.03-.79,0-1.18-.39-1.14-1.19v-.24c-.02-2.67.04-2.74,2.72-2.72,2.28.02,4.56,0,6.83.09.92.04,1.24-.34,1.26-1.15.03-.92-.6-.82-1.23-.81-2.63.06-5.27.1-7.9.12-1.38.01-1.67-.38-1.63-1.71.06-2.15.07-4.31.04-6.46,0-1.13.34-1.67,1.6-1.6,1.79.1,3.59.02,5.39.02v-.12h-.03Z"/>
          <path class="cls-1" d="m22.37,11.8c0-2.15.02-4.31,0-6.46-.01-.97.37-1.32,1.35-1.31,4.03.04,8.06.04,12.09,0,1.15,0,1.63.45,1.51,1.57-.03.28-.03.56-.05.84-.07,1.47-.23,1.64-1.7,1.63-2.55-.02-5.11-.02-7.66-.08-.91-.02-1.36.32-1.36,1.22,0,1.84.02,3.67-.01,5.51-.02.97.59.96,1.27.95,2.2-.03,4.39-.04,6.59-.05.52,0,1.04.03,1.56.04,1.05.02,1.54.51,1.4,1.59-.05.39-.1.8-.06,1.19.09.9-.37,1.25-1.18,1.27-1.32.04-2.63.06-3.95.07-2.63.02-5.27.02-7.9.03-1.7,0-1.96-.26-1.95-1.9.01-2.03,0-4.07,0-6.1h.05Z"/>
        </g>
      </g>
    </g>
  </g>
</svg>