<?xml version="1.0" encoding="UTF-8"?>
<svg id="Livello_2" data-name="Livello 2" xmlns="http://www.w3.org/2000/svg" viewBox="0 0 512 432.24">
  <defs>
    <style>
      .cls-1 {
        stroke-width: 0px;
      }
    </style>
  </defs>
  <g id="Livello_1-2" data-name="Livello 1">
    <g>
      <path class="cls-1" d="m512,31.24c-5.16,13.02-16.16,21.22-25.63,30.59-27.23,26.94-54.71,53.64-82.07,80.44-37.83,37.06-75.66,74.14-113.49,111.21-.7.69-1.49,1.29-2.91,2.53-15.21-29.65-36.34-54.07-62.54-74.97,10.51-7.53,20.57-14.78,30.66-21.97,50.14-35.71,100.28-71.4,150.42-107.1,21.14-15.05,42.2-30.22,63.43-45.15,13.32-9.37,25.57-9.16,35.08,1.07,3.31,3.56,4.75,8.85,7.04,13.35v10Z"/>
      <path class="cls-1" d="m0,429.24c2.38-9.79,4.53-19.65,7.18-29.36,7.67-28.1,17.89-55.05,37.49-77.32,15.31-17.4,33.42-30.69,57.1-33.75,33.32-4.31,66.82,14.95,62.69,60.63-2.08,23.01-12.86,41.04-33.31,52.49-11.8,6.6-24.95,8.92-38.23,10.34-19,2.03-38.04,3.64-57,6.01C22.9,419.9,10.98,425.02,0,432.24c0-1,0-2,0-3Z"/>
      <path class="cls-1" d="m210.44,189.03c28.97,20.2,48.32,47.01,63.87,77.67-29.02,14.82-57.82,29.52-87.18,44.52-5.33-17.05-16.71-29.15-31.69-38.78,3.63-4.41,7.53-8.33,10.47-12.87,9.02-13.94,17.63-28.14,26.47-42.2,5.9-9.38,11.91-18.69,18.06-28.34Z"/>
    </g>
  </g>
</svg>