<?xml version="1.0" encoding="UTF-8"?>
<svg id="Livello_2" data-name="Livello 2" xmlns="http://www.w3.org/2000/svg" viewBox="0 0 245.02 245.02">
  <defs>
    <style>
      .cls-1 {
        fill: #a259ff;
      }

      .cls-1, .cls-2, .cls-3, .cls-4, .cls-5, .cls-6 {
        stroke-width: 0px;
      }

      .cls-3 {
        fill: #1abcfe;
      }

      .cls-4 {
        fill: #0acf83;
      }

      .cls-5 {
        fill: #f24e1e;
      }

      .cls-6 {
        fill: #ff7262;
      }
    </style>
  </defs>
  <g id="Livello_1-2" data-name="Livello 1">
    <g>
      <circle class="cls-2" cx="122.51" cy="122.51" r="122.51"/>
      <g>
        <path id="path0_fill" data-name="path0 fill" class="cls-4" d="m100.61,198.89c13.15,0,23.83-10.95,23.83-24.45v-24.45h-23.83c-13.15,0-23.83,10.95-23.83,24.45s10.68,24.45,23.83,24.45Z"/>
        <path id="path1_fill" data-name="path1 fill" class="cls-1" d="m76.78,125.54c0-13.5,10.68-24.45,23.83-24.45h23.83v48.9h-23.83c-13.15,0-23.83-10.95-23.83-24.45Z"/>
        <path id="path1_fill-2" data-name="path1 fill" class="cls-5" d="m76.78,76.64c0-13.5,10.68-24.45,23.83-24.45h23.83v48.9h-23.83c-13.15,0-23.83-10.95-23.83-24.45Z"/>
        <path id="path2_fill" data-name="path2 fill" class="cls-6" d="m124.44,52.19h23.83c13.15,0,23.83,10.95,23.83,24.45s-10.68,24.45-23.83,24.45h-23.83v-48.9Z"/>
        <path id="path3_fill" data-name="path3 fill" class="cls-3" d="m172.1,125.54c0,13.5-10.68,24.45-23.83,24.45s-23.83-10.95-23.83-24.45,10.68-24.45,23.83-24.45,23.83,10.95,23.83,24.45Z"/>
      </g>
    </g>
  </g>
</svg>