<?xml version="1.0" encoding="UTF-8"?>
<svg id="Livello_2" data-name="Livello 2" xmlns="http://www.w3.org/2000/svg" viewBox="0 0 384 287.66">
  <defs>
    <style>
      .cls-1 {
        stroke-width: 0px;
      }
    </style>
  </defs>
  <g id="Livello_1-2" data-name="Livello 1">
    <g>
      <path class="cls-1" d="m384,144.58c-30.29,29.22-61.02,58.99-89.5,89.88-8.19-8.19-15.59-15.58-23.29-23.28,22.23-22.2,44.74-44.67,67.38-67.27-22.7-22.7-45.19-45.19-67.43-67.42,7.73-7.72,15.12-15.11,23.4-23.38,27.61,31.85,61.96,60.49,89.44,91.46Z"/>
      <path class="cls-1" d="m0,143.08c30.3-29.21,60.97-59.01,89.51-89.85,8.16,8.15,15.56,15.54,23.24,23.21-22.21,22.19-44.71,44.66-67.36,67.29,22.72,22.72,45.21,45.21,67.48,67.46-7.71,7.69-15.11,15.07-22.87,22.81C60.49,203.7,28.7,174.01,0,143.08Z"/>
      <path class="cls-1" d="m227.33,0h34.05c-34.99,96.12-69.86,191.92-104.71,287.66h-34.04C157.61,191.54,192.48,95.74,227.33,0Z"/>
    </g>
  </g>
</svg>