<?xml version="1.0" encoding="UTF-8"?>
<svg id="Livello_2" data-name="Livello 2" xmlns="http://www.w3.org/2000/svg" viewBox="0 0 119.51 117.25">
  <defs>
    <style>
      .cls-1, .cls-2 {
        stroke-width: 0px;
      }

      .cls-2 {
        fill: #fff;
      }
    </style>
  </defs>
  <g id="Livello_1-2" data-name="Livello 1">
    <g>
      <ellipse class="cls-1" cx="59.75" cy="58.62" rx="59.75" ry="58.62"/>
      <path class="cls-2" d="m75.93,28.23c.9-1,1.98-2.27,3.13-3.48,1.46-1.53,3.24-2.58,5.25-3.26.9-.3,1.47-.15,1.79.9,1.05,3.5,1.21,6.97.02,10.48-.14.41-.11,1.12.16,1.37,2.24,2.16,3.32,4.87,3.79,7.84.69,4.31,1.05,8.65.31,12.99-1.13,6.56-4.98,11.05-11,13.64-2.29.98-4.8,1.45-7.21,2.15-.33.1-.68.14-.77.16.6,2.2,1.21,4.32,1.76,6.46.15.57.14,1.19.15,1.78.01,5.07-.01,10.14.03,15.21,0,.99-.2,1.43-1.32,1.42-5.84-.05-11.68-.04-17.52,0-.94,0-1.23-.29-1.21-1.25.07-2.51.02-5.03.02-7.54,0-.31-.05-.61-.08-1.05-.48.07-.86.12-1.25.18-7.31,1.12-13.39-1.59-16.33-7.98-.96-2.09-2.36-3.98-3.67-5.88-.53-.76-1.41-1.27-2.08-1.95-.44-.45-.79-1-1.17-1.5.59-.14,1.19-.41,1.78-.41,3.52,0,5.94,1.85,7.67,4.74,3.08,5.14,7.97,7.14,13.83,5.69.92-.23,1.33-.63,1.4-1.61.17-2.2.82-4.28,2.17-6.19-1.7-.37-3.32-.63-4.87-1.09-5.92-1.75-10.74-4.91-13.34-10.77-1.62-3.65-1.74-7.51-1.51-11.4.18-3.15.3-6.34,1.61-9.27.66-1.47,1.64-2.81,2.61-4.11.43-.58.63-.98.37-1.69-1.24-3.44-1.06-6.87.02-10.34.35-1.12.91-1.25,1.86-.93,2.83.95,4.98,2.83,6.86,5.05.52.61.85,1.6,1.47,1.81.55.18,1.35-.63,2.08-.78,2.38-.48,4.77-1.12,7.17-1.22,3.3-.14,6.64-.02,9.93.31,2.02.2,3.97,1,6.1,1.56Z"/>
    </g>
  </g>
</svg>