<?xml version="1.0" encoding="UTF-8"?>
<svg id="Livello_2" data-name="Livello 2" xmlns="http://www.w3.org/2000/svg" viewBox="0 0 95.87 122.89">
  <defs>
    <style>
      .cls-1 {
        fill: #e34c26;
      }

      .cls-1, .cls-2, .cls-3, .cls-4, .cls-5 {
        stroke-width: 0px;
      }

      .cls-2 {
        fill: #f7f7f7;
      }

      .cls-4 {
        fill: #fff;
      }

      .cls-5 {
        fill: #f06529;
      }
    </style>
  </defs>
  <g id="Livello_2-2" data-name="Livello 2">
    <g id="Livello_1-2" data-name="Livello 1-2">
      <g id="html">
        <polygon class="cls-4" points="0 0 95.87 0 85.04 113.25 47.72 122.89 10.47 113.25 0 0"/>
        <path class="cls-1" d="m47.11,23.65h40.29c1.76,0,1.91.15,1.77,1.95-.48,6.29-.95,12.57-1.45,18.86-.3,3.74-.63,7.47-.95,11.21-.63,7.44-1.26,14.87-1.9,22.31-.72,8.35-1.46,16.7-2.21,25.04-.18,1.99-.42,3.97-.59,5.96-.07.86-.41,1.32-1.31,1.57-4.31,1.18-8.58,2.47-12.88,3.68-4.03,1.13-8.08,2.2-12.12,3.31-1.69.47-3.41.88-5.05,1.48-1.94.71-3.88.93-5.87.36-4.1-1.16-8.19-2.37-12.3-3.53-2.95-.83-5.92-1.61-8.87-2.43-2.88-.8-5.75-1.63-8.63-2.44-.31-.09-.6-.23-.9-.31-2.05-.51-1.98-.51-2.12-2.66-.19-2.87-.5-5.72-.75-8.59-.41-4.73-.81-9.47-1.21-14.2-.25-2.9-.49-5.8-.74-8.71-.32-3.78-.63-7.56-.95-11.33-.32-3.82-.65-7.63-.96-11.45-.48-5.81-.94-11.61-1.42-17.42-.3-3.62-.69-7.23-.95-10.85-.13-1.76,0-1.78,1.78-1.78h40.29v-.02h0Zm26.89,17.38h-3.67c-7.9-.05-15.8-.12-23.71-.15-8.27-.03-16.54,0-24.81,0-1.25,0-1.52.31-1.41,1.62.25,2.86.49,5.72.76,8.58.28,2.98.61,5.95.88,8.93.39,4.29.75,8.58,1.09,12.87.08.94.56,1.19,1.42,1.19,10.83-.06,21.65-.09,32.48-.14,2.73-.01,2.63-.02,2.4,2.66-.26,3.14-.31,6.3-.49,9.44-.02.42-.22,1.09-.51,1.2-1.13.46-2.33.76-3.51,1.09-1.78.51-3.56,1.03-5.35,1.48-.87.22-1.79.51-2.65.41-1.33-.16-2.63-.61-3.93-.97-2.15-.6-4.31-1.16-6.42-1.88-.47-.16-1.02-.84-1.09-1.34-.26-2.05-.4-4.13-.49-6.2-.04-1-.37-1.45-1.42-1.43-2.72.04-5.43.02-8.15.03-1.39,0-1.65.25-1.55,1.62.36,4.65.78,9.3,1.14,13.95.09,1.13.65,1.75,1.69,2.04,2.85.78,5.7,1.55,8.55,2.33,3.08.84,6.18,1.62,9.22,2.56,1.38.43,2.69.73,4.08.3.68-.21,1.32-.52,2-.71,2.96-.8,5.94-1.57,8.91-2.36,2.48-.66,4.97-1.31,7.44-2.01,1.26-.35,2.18-1.03,2.32-2.51.45-4.9.97-9.8,1.41-14.7.22-2.42.27-4.85.46-7.28.21-2.69.49-5.38.75-8.06.07-.72-.19-.96-.95-.94-2.39.08-4.79.09-7.19.09-9.5,0-19.01-.04-28.51-.03-.95,0-1.29-.48-1.38-1.28-.27-2.54-.56-5.08-.76-7.63-.12-1.56.13-1.72,1.76-1.72,12.31,0,24.62,0,36.92.02.95,0,1.27-.41,1.3-1.28.03-1.11.06-2.23.18-3.33.21-2.09.48-4.16.76-6.46h.03Z"/>
        <path class="cls-5" d="m49.61,30.09v83.25l27.32-7.43,5.59-75.82h-32.92,0Z"/>
        <g>
          <path class="cls-3" d="m60.38,12.41c-.78,1.26-1.53,2.54-2.35,3.77-.28.43-.68.86-1.13,1.06-.15.07-.69-.52-.93-.88-.67-1.04-1.26-2.12-1.9-3.18-.13-.22-.35-.38-.73-.79-.09.66-.19,1.06-.19,1.47,0,1.56-.03,3.11.03,4.67.03.89-.37,1.25-1.19,1.27-.88.02-1.75,0-2.63.06-.99.06-1.38-.42-1.38-1.34v-3.23c0-3.31,0-6.63-.04-9.94,0-1.06.4-1.39,1.44-1.32,4.69.29,3.59-.6,5.85,3.49.29.52.54,1.07.89,1.55.19.27.53.58.8.58s.61-.32.78-.59c.83-1.36,1.6-2.75,2.41-4.12.14-.23.36-.55.57-.57,1.61-.12,3.23-.24,4.85-.19.2,0,.52.99.52,1.53.04,3.67,0,7.35,0,11.02,0,2.01-1,3.04-2.99,3.1-2.09.06-2.25-.1-2.19-2.2.04-1.4.08-2.79.09-4.19,0-.3-.1-.59-.16-.89-.14-.04-.28-.09-.41-.13h0Z"/>
          <path class="cls-3" d="m28.31,12c0,2.12-.04,4.23.02,6.35.03.99-.37,1.41-1.3,1.42-.88,0-1.76-.02-2.64,0-.86.01-1.1-.45-1.06-1.22.04-.96.14-1.92.03-2.87-.04-.35-.57-.87-.92-.91-1.11-.12-2.23-.05-3.35-.05-.9,0-1.46.32-1.37,1.34.06.79.05,1.59.11,2.39.06.84-.24,1.3-1.13,1.29-.92,0-1.84.02-2.75.04-.81.01-1.16-.45-1.16-1.2.03-4.51.07-9.02.1-13.54,0-.72.4-.98,1.07-.97h2.16c1.54.02,1.78.28,1.71,1.84-.04.88-.07,1.75-.1,2.63-.02.74.34,1.11,1.09,1.1,1.16,0,2.32,0,3.48.01.87.01,1.22-.42,1.18-1.27-.04-1.08-.04-2.16-.08-3.23-.02-.74.28-1.1,1.06-1.08.84.02,1.68,0,2.52-.04.92-.05,1.31.37,1.31,1.27-.01,2.24,0,4.47,0,6.71h.05-.03Z"/>
          <path class="cls-3" d="m38.4,4.06h5.99c1.32,0,1.61.32,1.54,1.65-.02.4-.11.79-.11,1.19q0,2.08-2.09,2.05c-2.19-.03-3.29,1.03-3.28,3.18,0,2.15,0,4.31.06,6.46,0,.69-.24,1.07-.93,1.1-.8.04-1.59.1-2.39.07-1.4-.05-1.63-.36-1.6-1.76.05-2.43.09-4.87.06-7.3-.02-1.65-.25-1.82-1.91-1.82-1.86,0-2.79-.93-2.8-2.8,0-.28.02-.56,0-.84-.09-.93.33-1.27,1.26-1.25,2.07.05,4.15,0,6.22,0v.04l-.02.02Z"/>
          <path class="cls-3" d="m68.06,12c0-2.19.02-4.39,0-6.58-.02-1.04.43-1.45,1.45-1.38.6.04,1.2.04,1.8.02,1.74-.05,1.89.1,1.88,1.88,0,2.47.03,4.95-.02,7.42-.02.98.35,1.36,1.33,1.33,1.68-.05,3.35.01,5.03-.02.99-.02,1.37.44,1.33,1.38-.03.83-.05,1.67-.03,2.51.02.79-.3,1.2-1.11,1.2-3.55.01-7.1.02-10.66.05-1.08,0-1.07-.73-1.07-1.47v-6.34h.08Z"/>
        </g>
        <path class="cls-2" d="m74,41.03c-.27,2.3-.54,4.38-.76,6.46-.11,1.11-.15,2.22-.18,3.33-.02.87-.35,1.29-1.3,1.28-12.31-.02-24.62,0-36.92-.02-1.63,0-1.89.15-1.76,1.72.2,2.55.49,5.09.76,7.63.08.8.43,1.28,1.38,1.28,9.5,0,19.01.03,28.51.03,2.4,0,4.79,0,7.19-.09.77-.03,1.02.22.95.94-.26,2.69-.54,5.37-.75,8.06-.19,2.42-.25,4.86-.46,7.28-.44,4.9-.96,9.8-1.41,14.7-.14,1.48-1.06,2.15-2.32,2.51-2.47.7-4.96,1.35-7.44,2.01-2.97.79-5.94,1.56-8.91,2.36-.68.18-1.33.5-2,.71-1.4.44-2.71.13-4.08-.3-3.05-.95-6.14-1.72-9.22-2.56-2.85-.78-5.7-1.55-8.55-2.33-1.04-.28-1.6-.91-1.69-2.04-.36-4.65-.78-9.3-1.14-13.95-.11-1.37.16-1.61,1.55-1.62,2.72-.02,5.43.01,8.15-.03,1.05-.02,1.38.43,1.42,1.43.08,2.07.22,4.15.49,6.2.06.5.61,1.18,1.09,1.34,2.11.71,4.27,1.28,6.42,1.88,1.3.36,2.6.81,3.93.97.86.1,1.78-.19,2.65-.41,1.79-.46,3.57-.97,5.35-1.48,1.18-.34,2.38-.63,3.51-1.09.29-.12.48-.78.51-1.2.19-3.15.23-6.3.49-9.44.22-2.68.32-2.67-2.4-2.66-10.83.04-21.65.08-32.48.14-.86,0-1.35-.25-1.42-1.19-.34-4.29-.71-8.58-1.09-12.87-.27-2.98-.6-5.95-.88-8.93-.27-2.86-.51-5.72-.76-8.58-.11-1.31.15-1.62,1.41-1.62,8.27,0,16.54-.02,24.81,0,7.9.02,15.8.1,23.71.15h3.67-.03Z"/>
      </g>
    </g>
  </g>
</svg>