<?xml version="1.0" encoding="UTF-8"?>
<svg id="Livello_2" data-name="Livello 2" xmlns="http://www.w3.org/2000/svg" viewBox="0 0 330.8 384">
  <defs>
    <style>
      .cls-1 {
        stroke-width: 0px;
      }
    </style>
  </defs>
  <g id="Livello_1-2" data-name="Livello 1">
    <g>
      <path class="cls-1" d="m154.34,0c7,0,14,0,21,0,.82.23,1.62.51,2.45.68,6.95,1.45,14.15,2.15,20.82,4.43,44.04,15.05,69.92,45.76,77.75,91.61.47,2.76,1.32,3.48,3.95,3.42,4.86-.12,9.75-.1,14.61.23,19.39,1.33,35.09,17.49,35.72,36.86.28,8.74.13,17.49.13,26.24,0,36.73-.06,73.47.05,110.2.03,9.02-1.89,17.37-7.22,24.71-8.05,11.09-19.07,16.55-32.73,16.58-22.49.05-44.98.02-67.47.01-1.73,0-3.36-.29-4.09,2.11-4.35,14.1-3.58,27.63,4.49,40.26,3.74,5.86,9.13,9.07,16.36,8.68,3.11-.17,6.25-.13,9.37.02,5.24.26,8.44,3.81,8.5,9.01.05,4.49-2.57,7.03-6.17,8.94H79.34c-.28-.23-.53-.5-.84-.68-4.49-2.47-6.23-6.2-5.07-10.87,1.01-4.08,4.3-6.37,9.37-6.44,2.75-.04,5.51-.16,8.25.02,7.29.48,12.55-2.84,16.26-8.75,7.88-12.57,8.64-25.98,4.45-39.96-.76-2.55-2.41-2.35-4.31-2.35-22.24.02-44.49.06-66.73,0-23.38-.07-40.43-16.59-40.55-39.97-.23-44.99-.18-89.98-.01-134.97.07-18.23,10.56-33.17,27.37-37.81,7.42-2.05,15.54-1.65,23.36-2.05,2.58-.13,3.48-.67,3.95-3.44C62.7,50.52,89.09,19.92,133.29,4.75,140.05,2.43,147.31,1.55,154.34,0Zm122.99,118.66c-2.22,28.74-13.43,53.61-34.4,73.77-20.96,20.15-46.07,31.01-75.2,31.47-26.06.41-49.79-7.23-70.41-23.38-26.64-20.87-40.78-48.56-43.59-82.45-4.19,0-8.17-.01-12.16,0-14.95.06-23.48,8.57-23.48,23.52-.02,43.99-.02,87.98,0,131.97,0,14.86,8.65,23.4,23.61,23.4,82.48,0,164.96-.13,247.44.13,13.32.04,23.91-9.06,23.77-23.8-.41-43.86-.15-87.73-.15-131.59,0-1.25,0-2.5-.07-3.75-.47-9.27-7.05-17.75-16.14-19.13-6.19-.94-12.63-.18-19.22-.18Zm-147.21,196.46c4.1,17.68,2.69,34.56-6.4,50.58h83.74c-9.16-16.15-10.76-32.97-6.42-50.58h-70.92Zm7.99-162.8h54.72c1-10.14,2.02-20.49,3.07-31.09h-60.62c.97,10.66,1.91,21.03,2.83,31.09Zm-2.84-49.62h60.65c-1.08-10.69-2.12-21.03-3.13-31.06h-54.69c-.93,10.18-1.87,20.45-2.83,31.06Zm-63,18.46c1.24,14.89,5.89,28.14,13.62,40.34.42.66,2.11.98,3.03.75,4.23-1.07,8.34-2.59,12.59-3.57,6.28-1.45,12.63-2.59,18.81-3.83-1.05-11.35-2.07-22.47-3.11-33.68h-44.94Zm138.53,33.32c11.43,2.68,22.55,5.29,33.99,7.98,7.69-12.36,12.63-25.99,14.1-41.2h-44.97c-1.06,11.29-2.09,22.33-3.12,33.22Zm-138.55-51.79h44.98c1.05-11.34,2.06-22.36,3.05-33.08-10.67-2.72-21.27-5.47-31.91-8.03-.81-.19-2.34.64-2.84,1.43-7.59,12.03-12.04,25.13-13.29,39.67Zm186.53.08c-.05-.95-.04-1.68-.13-2.39-1.47-12.43-5.57-23.96-11.43-34.99-1.96-3.69-4.03-4.71-7.83-2.9-2.11,1-4.51,1.45-6.81,1.97-7.26,1.65-14.54,3.22-21.81,4.82,1.06,11.26,2.11,22.38,3.15,33.48h44.86Zm-116.72-49.25h47.81c-3.95-9.63-7.53-18.33-11.1-27.04-2.76-6.73-7.53-9.87-14.91-8.48-.85.16-1.84-.18-2.6.12-1.73.67-3.92,1.17-4.96,2.49-7.48,9.51-11.04,20.77-14.25,32.91Zm.58,116.88c-.36.44-.71.87-1.07,1.31,3.39,8.26,6.73,16.55,10.18,24.79,2.97,7.09,7.95,10.88,16.01,9.34.6-.12,1.33.17,1.85-.06,1.82-.8,4.17-1.28,5.26-2.7,7.22-9.46,10.79-20.54,14.03-32.68h-46.25Zm64.95,2.25c-3.17,9.25-6.18,18.05-9.33,27.27,13.06-4.91,24.1-12.02,34.18-22.24-8.78-1.78-16.81-3.4-24.84-5.03Zm-108.93,5.08c10.32,10.17,21.19,17.55,34.09,22.03-3.1-9.15-6.05-17.84-9.19-27.1-7.96,1.62-16.03,3.27-24.9,5.07Zm24.87-126.28c3.21-9.54,6.18-18.37,9.25-27.49-12.74,4.91-23.78,11.94-34.05,22.21,8.84,1.88,16.8,3.58,24.79,5.28Zm84.12.03c7.99-1.72,15.99-3.45,24.81-5.35-10.48-10.24-21.49-17.32-34.09-22.15,3.09,9.16,6.05,17.94,9.27,27.5Z"/>
      <path class="cls-1" d="m165.3,269.44c-37.37,0-74.74,0-112.12,0-6.03,0-8.82-1.79-10.13-6.31-1.62-5.61,1.65-10.72,7.42-11.52,1.23-.17,2.49-.15,3.74-.15,74.24,0,148.49,0,222.73,0,6.65,0,9.61,1.7,11.03,6.26,1.84,5.92-1.76,11.36-7.94,11.64-4.74.22-9.5.1-14.25.1-33.5,0-67,0-100.49,0Z"/>
    </g>
  </g>
</svg>