<?xml version="1.0" encoding="UTF-8"?>
<svg id="Livello_2" data-name="Livello 2" xmlns="http://www.w3.org/2000/svg" viewBox="0 0 95.87 122.89">
  <defs>
    <style>
      .cls-1, .cls-2, .cls-3, .cls-4, .cls-5 {
        stroke-width: 0px;
      }

      .cls-2 {
        fill: #fff;
      }

      .cls-3 {
        fill: #4e504b;
      }

      .cls-4 {
        fill: #ffe564;
      }

      .cls-5 {
        fill: #f0db4f;
      }
    </style>
  </defs>
  <g id="Livello_2-2" data-name="Livello 2">
    <g id="Livello_1-2" data-name="Livello 1-2">
      <g id="js">
        <polygon class="cls-2" points="0 0 95.87 0 85.04 113.25 47.72 122.89 10.47 113.25 0 0"/>
        <path class="cls-5" d="m5.51,24.93c-.06-1.5,0-1.52,1.53-1.42.84.05,1.68.05,2.52.05,25.9,0,51.8,0,77.7-.01.52,0,1.04-.04,1.55-.09,1.28-.12,1.65.13,1.55,1.44-.19,2.42-.57,4.83-.77,7.25-.42,5.13-.71,10.26-1.16,15.39-.46,5.28-1.09,10.54-1.57,15.82-.26,2.82-.3,5.66-.55,8.48-.47,5.28-1.03,10.55-1.53,15.82-.15,1.55-.2,3.11-.33,4.66-.28,3.18-.6,6.35-.87,9.52-.21,2.46-.39,4.93-.53,7.4-.05.81-.42,1.19-1.18,1.4-4.94,1.35-9.88,2.72-14.81,4.11-4.17,1.18-8.32,2.41-12.48,3.6-1.94.56-3.87,1.27-5.86,1.53-1.32.17-2.75-.25-4.08-.6-4.53-1.21-9.03-2.5-13.54-3.77-2.83-.8-5.65-1.64-8.48-2.45-2.82-.81-5.65-1.63-8.48-2.4-.82-.22-1.17-.66-1.24-1.51-.54-6.76-1.07-13.51-1.69-20.26-.56-6.15-1.25-12.29-1.82-18.44-.25-2.62-.3-5.26-.54-7.88-.43-4.88-.96-9.75-1.39-14.63-.22-2.5-.28-5.02-.5-7.52-.45-4.96-.96-9.92-1.44-14.87-.02-.2,0-.4,0-.6v-.02Zm45.75,34.68v5.63c0,3.71,0,7.43.02,11.14,0,1.55.25,1.7,1.7,1.39.9-.19,1.79-.38,2.7-.53,3.18-.53,6.37-1.03,9.55-1.58.82-.14,1.18.23,1.13.94-.07.91-.34,1.8-.43,2.71-.2,2.11-.33,4.22-.5,6.32-.08,1-.14,2.04-1.36,2.41-1.52.46-3.04.96-4.57,1.38-2.3.63-4.61,1.24-6.93,1.81-.98.24-1.35.78-1.32,1.79.05,2.28,0,4.55.02,6.83,0,1.54.23,1.63,1.69,1.18,3.04-.93,6.11-1.81,9.17-2.67,3.15-.88,6.3-1.72,9.47-2.55,1.07-.28,1.61-.89,1.69-2.01.14-1.95.36-3.89.54-5.83.46-4.88.92-9.77,1.36-14.65.21-2.38.36-4.77.57-7.15.07-.82-.2-1.23-1.08-1.07-.31.06-.64.06-.95.11-2.33.35-4.65.69-6.97,1.06-1.61.26-3.22.51-4.82.86-1.12.25-1.55.06-1.55-1.07-.02-4.75,0-9.51-.02-14.26,0-.87.38-1.18,1.25-1.17,4.63.05,9.27.06,13.9.08,1.46,0,1.57-.12,1.67-1.65.12-1.83.22-3.66.43-5.48.25-2.11.05-2.39-2.07-2.38-7.27,0-14.55.02-21.82.02-2.44,0-2.47.02-2.47,2.46v15.94h0Zm-6.7,11.88h-.02v-26.97c0-.72,0-1.44-.05-2.16-.05-.86-.44-1.22-1.39-1.19-2.11.08-4.23.06-6.35,0-.82-.02-1.21.27-1.24,1.06-.02.44-.02.88-.02,1.32v42.07c0,.84,0,1.68-.07,2.52-.05.58-.29.95-1.03.74-4.67-1.34-9.35-2.64-14.03-3.96-1.06-.3-1.4-.06-1.4,1.06-.02,2.2-.01,4.4,0,6.59.01,1.53.43,2.05,1.93,2.44.89.23,1.8.37,2.68.61,3.19.88,6.37,1.79,9.55,2.68,3.22.9,6.46,1.76,9.67,2.72,1.5.44,1.78.31,1.78-1.25v-28.29h-.01Z"/>
        <path class="cls-4" d="m51.27,29.55v83.25l27.32-7.43,5.59-75.82h-32.92.01Z"/>
        <g>
          <path class="cls-1" d="m54.79,19.85h-5.75c-1.52,0-1.76-.2-1.77-1.68-.03-2.62-.03-2.61,2.59-2.57,2.4.04,4.79.02,7.19.06.76.02,1.25-.15,1.26-1.02.02-.93-.63-.86-1.24-.86-2.63.03-5.27.05-7.9.1-1.53.03-1.88-.24-1.9-1.75-.02-2.24.02-4.47,0-6.71,0-1,.4-1.4,1.44-1.4,4.19,0,8.38-.06,12.57-.04.34,0,.73.44.98.76.15.18.08.54.09.82.16,2.51.11,2.54-2.34,2.52-2.44-.02-4.87.03-7.31,0-.86,0-1.23.31-1.24,1.18,0,.92.57,1.05,1.26,1.04,2.71-.04,5.43-.02,8.14-.17,1.08-.06,1.48.28,1.47,1.29,0,2.43,0,4.87,0,7.3,0,.84-.45,1.1-1.22,1.09-2.11-.02-4.23,0-6.35,0v.03h.03Z"/>
          <path class="cls-1" d="m45.3,12.02c0,2.19-.02,4.38,0,6.58,0,.77-.32,1.15-1.03,1.16-3.03.02-6.06.02-9.09.01-.73,0-1.09-.4-1.11-1.12v-.24c-.09-2.67-.02-2.75,2.65-2.75,1.04,0,2.08-.02,3.11.04,1.18.08,1.4-.55,1.37-1.55-.06-2.71-.1-5.42-.07-8.13,0-.62.25-1.71.54-1.76,1.02-.19,2.12-.11,3.16.08.23.04.42.95.43,1.47.05,2.07.02,4.14.02,6.22h.01Z"/>
        </g>
        <path class="cls-3" d="m51.27,59.61v-15.94c0-2.44.03-2.46,2.47-2.46,7.27,0,14.55,0,21.82-.02,2.12,0,2.32.27,2.07,2.38-.21,1.82-.31,3.65-.43,5.48-.1,1.52-.21,1.65-1.67,1.65-4.64-.02-9.27-.03-13.9-.08-.87,0-1.25.29-1.25,1.17,0,4.75,0,9.51.02,14.26,0,1.13.43,1.32,1.55,1.07,1.59-.35,3.21-.6,4.82-.86,2.32-.37,4.65-.71,6.97-1.06.32-.05.64-.05.95-.11.88-.16,1.15.25,1.08,1.07-.2,2.38-.35,4.77-.57,7.15-.44,4.89-.9,9.77-1.36,14.65-.18,1.94-.4,3.88-.54,5.83-.08,1.12-.62,1.73-1.69,2.01-3.16.83-6.32,1.67-9.47,2.55-3.07.86-6.13,1.74-9.17,2.67-1.47.45-1.69.36-1.69-1.18,0-2.28.04-4.55-.02-6.83-.02-1.01.34-1.55,1.32-1.79,2.32-.57,4.63-1.18,6.93-1.81,1.53-.42,3.05-.92,4.57-1.38,1.22-.37,1.28-1.4,1.36-2.41.17-2.11.3-4.22.5-6.32.08-.91.36-1.8.43-2.71.05-.71-.31-1.09-1.13-.94-3.18.55-6.37,1.05-9.55,1.58-.9.15-1.8.34-2.7.53-1.44.31-1.68.16-1.7-1.39-.03-3.71-.02-7.43-.02-11.14v-5.63h0Z"/>
        <path class="cls-3" d="m44.57,71.48v28.29c0,1.56-.28,1.7-1.78,1.25-3.21-.95-6.44-1.81-9.67-2.72-3.18-.89-6.36-1.8-9.55-2.68-.88-.24-1.79-.38-2.68-.61-1.5-.38-1.92-.91-1.93-2.44-.02-2.2-.02-4.4,0-6.59,0-1.12.35-1.36,1.4-1.06,4.68,1.31,9.36,2.62,14.03,3.96.74.21.99-.16,1.03-.74.07-.83.07-1.68.07-2.52v-42.07c0-.44,0-.88.02-1.32.03-.79.42-1.08,1.24-1.06,2.12.05,4.24.08,6.35,0,.95-.04,1.34.32,1.39,1.19.04.72.05,1.44.05,2.16v26.97h.03Z"/>
      </g>
    </g>
  </g>
</svg>