<?xml version="1.0" encoding="UTF-8"?>
<svg id="Livello_2" data-name="Livello 2" xmlns="http://www.w3.org/2000/svg" viewBox="0 0 118.06 118.4">
  <defs>
    <style>
      .cls-1 {
        fill: #0077b5;
      }

      .cls-1, .cls-2 {
        stroke-width: 0px;
      }

      .cls-2 {
        fill: #fff;
      }
    </style>
  </defs>
  <g id="Livello_1-2" data-name="Livello 1">
    <g>
      <path class="cls-1" d="m58.99,0c5.16.12,10.25.62,15.19,1.98,5.28,1.45,10.33,3.55,15.02,6.43,4.54,2.78,8.72,6.03,12.41,9.91,6.64,7,11.28,15.11,14.05,24.36,1.97,6.59,2.64,13.31,2.34,20.14-.28,6.28-1.66,12.33-3.96,18.19-2.39,6.09-5.78,11.54-9.95,16.57-3.88,4.69-8.46,8.54-13.55,11.84-5.9,3.82-12.34,6.29-19.16,7.83-5.93,1.34-11.9,1.36-17.94.86-6.28-.52-12.27-2.1-17.98-4.6-5.97-2.62-11.58-5.94-16.22-10.64-2.82-2.86-5.51-5.87-8.12-8.93-1.18-1.38-2.09-3.02-3.02-4.6-2.57-4.35-4.52-8.98-5.9-13.85C.83,70.64.12,65.71.02,60.7c-.15-7.42.85-14.66,3.44-21.65,3.04-8.21,7.5-15.52,13.76-21.66,5.79-5.68,12.33-10.28,19.98-13.09,3.51-1.29,7.09-2.49,10.75-3.21,3.62-.71,7.36-.75,11.05-1.09ZM23.37,59.42c0,3.6,0,7.2,0,10.8,0,3.6,0,7.2.01,10.8,0,.8-.07,1.63.13,2.39,1.74,6.53,5.24,10.65,13.08,11.59,3.62.43,7.33.15,11,.16,10.77,0,21.55.04,32.32-.02,8.57-.05,14.71-6.28,14.71-14.82,0-14.15,0-28.31,0-42.46,0-7.81-6.25-14.21-14-14.23-14.52-.04-29.05-.01-43.57,0-.83,0-1.68.1-2.49.28-7.42,1.65-11.4,8.69-11.24,14.41.19,7.03.05,14.07.05,21.11Z"/>
      <path class="cls-2" d="m23.37,58.95c0-7.04.14-14.08-.05-21.11-.15-5.71,3.82-12.76,11.24-14.41.81-.18,1.66-.28,2.49-.28,14.52-.02,29.05-.05,43.57,0,7.75.02,13.99,6.41,14,14.23.01,14.15.01,28.31,0,42.46,0,8.53-6.14,14.77-14.71,14.82-10.77.06-21.55.03-32.32.02-3.67,0-7.38.28-11-.16-7.84-.94-11.34-5.06-13.08-11.59-.2-.75-.13-1.59-.13-2.39-.01-3.6-.01-7.2-.01-10.8,0-3.6,0-7.2,0-10.8Zm28.15,8.41s-.02,0-.03,0c0,4.6,0,9.2,0,13.79,0,1.47.22,1.63,1.68,1.62,2.39-.02,4.79,0,7.18,0,1.26,0,1.57-.27,1.57-1.54-.02-5.28-.05-10.56-.09-15.84-.01-1.75.24-3.43,1.28-4.91,1.31-1.86,3.1-2.69,5.37-2.44,2.38.26,4.08,1.43,4.65,3.83.33,1.39.53,2.84.55,4.26.06,5.04.03,10.08,0,15.12,0,.93.19,1.55,1.31,1.53,2.51-.03,5.03-.01,7.54.01.97,0,1.36-.42,1.35-1.38-.03-5.84.06-11.68-.09-17.52-.06-2.21-.34-4.51-1.07-6.57-2.93-8.2-13.66-10.07-19.35-3.49-.05.06-.09.14-.16.18-.33.18-.66.34-1,.51-.13-.36-.33-.71-.38-1.07-.05-.47.01-.96.04-1.44.05-.97-.42-1.38-1.37-1.37-2.55.02-5.11.02-7.66,0-1.03,0-1.37.48-1.36,1.49.04,5.08.02,10.15.02,15.23Zm-16.62-.58c0,4.79,0,9.59,0,14.38,0,1.45.24,1.64,1.68,1.64,2.35-.01,4.7-.02,7.05.04,1.02.02,1.51-.36,1.49-1.38-.03-1.12-.09-2.24-.09-3.35.02-8.59.06-17.18.09-25.77,0-1.37-.29-1.68-1.68-1.68-2.23,0-4.47,0-6.7,0-1.63,0-1.84.2-1.84,1.87,0,4.75,0,9.51,0,14.26Zm5.23-31.75c-3.49-.03-5.86,2.06-5.89,5.22-.04,3.19,2.27,5.41,5.68,5.46,3.37.05,5.79-2.1,5.82-5.18.03-3.29-2.19-5.47-5.61-5.5Z"/>
      <path class="cls-1" d="m51.52,67.59c0-5.08.02-10.15-.02-15.23,0-1.01.33-1.5,1.36-1.49,2.55.02,5.11.02,7.66,0,.95,0,1.42.4,1.37,1.37-.03.48-.1.97-.04,1.44.04.37.25.72.38,1.07.33-.17.67-.33,1-.51.07-.04.11-.12.16-.18,5.69-6.58,16.42-4.71,19.35,3.49.74,2.06,1.01,4.37,1.07,6.57.15,5.84.06,11.68.09,17.52,0,.96-.39,1.39-1.35,1.38-2.51-.03-5.03-.04-7.54-.01-1.12.01-1.31-.6-1.31-1.53.02-5.04.06-10.08,0-15.12-.02-1.42-.22-2.87-.55-4.26-.57-2.4-2.26-3.57-4.65-3.83-2.27-.25-4.06.58-5.37,2.44-1.04,1.47-1.29,3.15-1.28,4.91.04,5.28.07,10.56.09,15.84,0,1.27-.31,1.54-1.57,1.54-2.39,0-4.79-.02-7.18,0-1.47.01-1.68-.15-1.68-1.62,0-4.6,0-9.2,0-13.79.01,0,.02,0,.03,0Z"/>
      <path class="cls-1" d="m34.9,67.01c0-4.75,0-9.51,0-14.26,0-1.68.2-1.88,1.84-1.87,2.23.01,4.47,0,6.7,0,1.39,0,1.69.31,1.68,1.68-.03,8.59-.07,17.18-.09,25.77,0,1.12.06,2.24.09,3.35.02,1.02-.47,1.4-1.49,1.38-2.35-.06-4.7-.05-7.05-.04-1.44,0-1.68-.19-1.68-1.64,0-4.79,0-9.59,0-14.38Z"/>
      <path class="cls-1" d="m40.13,35.26c3.42.03,5.64,2.21,5.61,5.5-.03,3.08-2.45,5.23-5.82,5.18-3.41-.06-5.72-2.27-5.68-5.46.04-3.15,2.4-5.25,5.89-5.22Z"/>
    </g>
  </g>
</svg>