<?xml version="1.0" encoding="UTF-8"?>
<svg id="Livello_2" data-name="Livello 2" xmlns="http://www.w3.org/2000/svg" viewBox="0 0 222 222">
  <defs>
    <style>
      .cls-1 {
        fill: #fff;
      }

      .cls-1, .cls-2 {
        stroke-width: 0px;
      }

      .cls-2 {
        fill: #2062a8;
      }
    </style>
  </defs>
  <g id="Livello_1-2" data-name="Livello 1">
    <g>
      <circle class="cls-2" cx="111" cy="111" r="111"/>
      <g>
        <path class="cls-1" d="m41.59,75.47c3.48,2.81,5.82,4.61,8.05,6.51,18.88,16.09,37.75,32.21,56.62,48.32,5.21,4.45,7.2,4.43,12.47-.08,19.23-16.46,38.45-32.92,57.69-49.37,1.85-1.58,4.41-3.66,7.13-5.89.06,2.87,0,4.74,0,6.33.02,21.99-.24,43.96-.25,65.95,0,7.16-2.76,10.07-9.85,10.08-40.64.04-81.29.04-121.93,0-7.19,0-9.92-2.84-9.93-9.97-.01-21.99,0-43.97,0-65.96v-5.92Z"/>
        <path class="cls-1" d="m181.17,69.82c-3.81,3.19-8.49,6.83-12.12,9.93-17.83,15.26-35.7,30.46-53.49,45.76-2.06,1.78-3.49,2.41-5.89.33-20.54-17.72-41.19-35.32-61.79-52.97-.97-.83-4.56-3.36-6.3-5.19,4.41-.09,7.19.06,9.44.06,42.31-.02,81.91-.07,122.87,0,1.88,0,7.93-.16,9.66-.08-.17.5-.17.39-2.38,2.16Z"/>
      </g>
    </g>
  </g>
</svg>