<?xml version="1.0" encoding="UTF-8"?>
<svg id="Livello_2" data-name="Livello 2" xmlns="http://www.w3.org/2000/svg" viewBox="0 0 812.13 791.83">
  <defs>
    <style>
      .cls-1 {
        fill: #001e36;
      }

      .cls-1, .cls-2, .cls-3 {
        stroke-width: 0px;
      }

      .cls-2 {
        fill: #f9f9f9;
      }

      .cls-3 {
        fill: #31a8ff;
      }
    </style>
  </defs>
  <g id="Layer_1" data-name="Layer 1">
    <g id="Layer_2" data-name="Layer 2">
      <g id="Surfaces">
        <g id="Photo_Surface" data-name="Photo Surface">
          <g id="Outline_no_shadow" data-name="Outline no shadow">
            <path class="cls-2" d="m143.82,0h524.5c79.53,0,143.82,64.29,143.82,143.82v504.19c0,79.53-64.29,143.82-143.82,143.82H143.82C64.29,791.83,0,727.54,0,648.01V143.82C0,64.29,64.29,0,143.82,0Z"/>
          </g>
        </g>
      </g>
      <g id="Surfaces-2" data-name="Surfaces">
        <g id="Photo_Surface-2" data-name="Photo Surface">
          <g id="Outline_no_shadow-2" data-name="Outline no shadow">
            <path class="cls-1" d="m170.04,39.59h472.06c71.58,0,129.44,57.87,129.44,129.44v453.78c0,71.58-57.86,129.44-129.44,129.44H170.04c-71.57,0-129.44-57.86-129.44-129.44V169.02c0-71.57,57.87-129.44,129.44-129.44Z"/>
          </g>
        </g>
      </g>
      <g id="Outlined_Mnemonics_Logos" data-name="Outlined Mnemonics Logos">
        <g id="Ps">
          <path class="cls-3" d="m205.06,539.36V225.97c0-2.13.91-3.35,3.04-3.35,5.18,0,10.05,0,17.05-.3,7.31-.3,14.92-.3,23.15-.61,8.22-.3,17.05-.3,26.5-.61,9.44-.3,18.58-.3,27.72-.3,24.97,0,45.68,3.05,62.74,9.44,15.23,5.18,29.24,13.7,40.81,24.97,9.75,9.75,17.36,21.62,22.23,34.72,4.57,12.79,7.01,25.89,7.01,39.59,0,26.19-6.09,47.82-18.27,64.87-12.18,17.06-29.24,29.85-49.03,37.16-20.71,7.61-43.55,10.35-68.52,10.35-7.31,0-12.18,0-15.23-.3-3.05-.3-7.31-.3-13.1-.3v97.76c.31,2.13-1.22,3.96-3.35,4.26h-59.08c-2.44,0-3.66-1.22-3.66-3.96Zm66.39-257.96v102.33c4.26.3,8.22.61,11.88.61h16.14c11.88,0,23.76-1.83,35.02-5.48,9.74-2.74,18.27-8.53,24.97-16.14,6.4-7.61,9.44-17.97,9.44-31.37.31-9.44-2.13-18.88-7-27.1-5.18-7.92-12.49-14.01-21.32-17.36-11.27-4.57-23.45-6.4-35.94-6.09-7.92,0-14.92,0-20.71.3-6.09-.31-10.35,0-12.48.3h0Z"/>
          <path class="cls-3" d="m625.35,365.15c-9.14-4.87-18.89-8.22-29.24-10.35-11.27-2.44-22.54-3.96-34.11-3.96-6.09-.3-12.49.61-18.27,2.13-3.96.91-7.31,3.05-9.45,6.09-1.52,2.43-2.43,5.48-2.43,8.22s1.22,5.48,3.04,7.92c2.74,3.35,6.4,6.09,10.35,8.22,7.01,3.65,14.32,7.01,21.62,10.05,16.45,5.48,32.28,13.1,46.9,22.23,10.05,6.4,18.27,14.92,24.06,25.27,4.87,9.75,7.31,20.41,7,31.37.31,14.31-3.96,28.63-11.88,40.5-8.53,12.18-20.4,21.62-34.11,27.11-14.92,6.4-33.19,9.74-55.12,9.74-14.01,0-27.72-1.22-41.42-3.96-10.65-1.83-21.32-5.18-31.06-9.75-2.13-1.22-3.65-3.35-3.35-5.78v-52.99c0-.91.3-2.13,1.22-2.74.91-.61,1.83-.3,2.74.3,11.88,7.01,24.36,11.88,37.76,14.93,11.57,3.04,23.76,4.57,35.94,4.57s19.79-1.52,25.27-4.27c4.88-2.13,8.22-7.31,8.22-12.79,0-4.27-2.43-8.22-7.31-12.18-4.87-3.96-14.92-8.53-29.84-14.32-15.53-5.48-29.85-12.79-43.25-21.93-9.44-6.7-17.36-15.53-23.14-25.89-4.87-9.75-7.31-20.41-7.01-31.07,0-13.1,3.65-25.58,10.36-36.85,7.61-12.18,18.88-21.93,31.98-28.02,14.31-7.31,32.28-10.66,53.91-10.66,12.48,0,25.27.91,37.76,2.74,9.14,1.22,17.97,3.65,26.19,7.01,1.22.3,2.43,1.52,3.04,2.74.3,1.22.61,2.44.61,3.65v49.64c0,1.22-.61,2.44-1.52,3.04-2.74.61-4.27.61-5.48,0Z"/>
        </g>
      </g>
    </g>
  </g>
</svg>