<?xml version="1.0" encoding="UTF-8"?>
<svg id="Livello_2" data-name="Livello 2" xmlns="http://www.w3.org/2000/svg" viewBox="0 0 136.52 132.24">
  <defs>
    <style>
      .cls-1 {
        fill: #787cb5;
      }

      .cls-1, .cls-2 {
        stroke-width: 0px;
      }

      .cls-2 {
        fill: #fff;
      }
    </style>
  </defs>
  <g id="Livello_1-2" data-name="Livello 1">
    <g>
      <ellipse class="cls-1" cx="68.26" cy="66.12" rx="68.26" ry="66.12"/>
      <g>
        <path class="cls-2" d="m87.72,96.66c.34-2.02.62-3.79.94-5.55.5-2.7,1.03-5.39,1.54-8.08.69-3.68,1.39-7.36,2.06-11.04.69-3.8,1.35-7.6,2.04-11.4.73-3.99,1.46-7.98,2.24-11.97.06-.29.56-.71.85-.71,6.24-.01,12.49-.24,18.71.13,5.11.31,9.18,3.56,10.2,9.26,1.39,7.71-.63,14.58-5.47,20.63-2.85,3.56-6.69,5.4-11.27,5.58-3.11.12-6.23.16-9.34.23-.39,0-.78,0-1.29,0-.74,3.96-1.5,7.82-2.16,11.7-.15.86-.36,1.27-1.31,1.25-2.51-.06-5.02-.02-7.73-.02Zm12.69-20.71c3.78.18,7.31-.05,10.77-.98,1.67-.45,2.92-1.48,3.8-3.04,2.18-3.87,2.68-8.04,2.32-12.36-.14-1.67-1.22-2.71-2.85-3.11-3.17-.76-6.39-.94-9.64-.75-.29.02-.72.35-.8.61-.25.88-.37,1.79-.54,2.69-.52,2.74-1.05,5.47-1.54,8.22-.52,2.85-1,5.71-1.52,8.72Z"/>
        <path class="cls-2" d="m13.54,96.44c1.04-5.78,2.06-11.5,3.08-17.21.86-4.78,1.71-9.56,2.6-14.33.89-4.77,1.83-9.54,2.75-14.31,0-.04.02-.08.03-.12q.51-2.6,3.2-2.6c4.88,0,9.76.02,14.64,0,7.59-.03,12.35,4.58,12.63,11.99.31,7.97-2.09,14.99-8.26,20.39-2.43,2.13-5.4,3.01-8.54,3.2-3.23.2-6.47.23-9.7.24-1,0-1.33.25-1.5,1.28-.61,3.65-1.35,7.28-2.09,10.91-.06.29-.45.72-.69.72-2.64.03-5.27,0-7.91-.03-.07,0-.13-.08-.24-.15Zm12.62-20.48c3.9.15,7.67.04,11.3-1.22.86-.3,1.81-.81,2.35-1.51,2.96-3.85,3.61-8.38,3.37-13.06-.08-1.49-.65-3.01-2.28-3.49-3.59-1.06-7.28-1.22-11.04-.91-1.23,6.72-2.46,13.4-3.7,20.19Z"/>
        <path class="cls-2" d="m53.01,83.72c.62-3.34,1.22-6.5,1.79-9.66.95-5.25,1.87-10.5,2.83-15.75,1.12-6.15,2.25-12.29,3.39-18.44.25-1.33.47-2.67.8-3.98.1-.39.49-1,.77-1.01,2.66-.08,5.33-.05,8.2-.05-.8,4.39-1.58,8.6-2.38,12.99.53.02.98.05,1.43.06,3.39.1,6.8.02,10.17.35,2.28.23,4.46,1.14,6.09,2.93,1.21,1.32,1.83,2.96,1.71,4.69-.21,3.09-.55,6.18-1.04,9.23-.75,4.68-1.67,9.32-2.52,13.98-.24,1.29-.45,2.59-.76,3.86-.07.3-.47.75-.73.75-2.71.05-5.42.03-8.29.03.35-2.01.65-3.88.99-5.74,1.03-5.64,2.08-11.27,3.11-16.9.09-.51.12-1.03.1-1.55-.06-2.19-.82-3.2-3.01-3.41-2.81-.28-5.65-.31-8.65-.45-.41,1.97-.83,3.81-1.17,5.68-.96,5.21-1.87,10.43-2.82,15.64-.36,1.99-.74,3.99-1.16,5.97-.06.28-.39.73-.6.73-2.7.05-5.41.03-8.26.03Z"/>
        <path class="cls-1" d="m100.41,75.96c.52-3.01,1-5.87,1.52-8.72.49-2.74,1.02-5.48,1.54-8.22.17-.9.29-1.81.54-2.69.08-.27.51-.6.8-.61,3.24-.19,6.47-.01,9.64.75,1.63.39,2.71,1.44,2.85,3.11.36,4.32-.13,8.49-2.32,12.36-.88,1.56-2.13,2.59-3.8,3.04-3.45.93-6.98,1.16-10.77.98Z"/>
        <path class="cls-1" d="m26.16,75.95c1.24-6.79,2.47-13.47,3.7-20.19,3.76-.32,7.45-.15,11.04.91,1.62.48,2.2,2.01,2.28,3.49.24,4.68-.41,9.21-3.37,13.06-.54.7-1.49,1.21-2.35,1.51-3.63,1.26-7.39,1.37-11.3,1.22Z"/>
      </g>
    </g>
  </g>
</svg>