<?xml version="1.0" encoding="UTF-8"?>
<svg id="Livello_2" data-name="Livello 2" xmlns="http://www.w3.org/2000/svg" viewBox="0 0 72.85 72.85">
  <defs>
    <style>
      .cls-1 {
        fill: #e699bc;
      }

      .cls-1, .cls-2 {
        stroke-width: 0px;
      }

      .cls-2 {
        fill: #f4f4f4;
      }
    </style>
  </defs>
  <g id="Livello_1-2" data-name="Livello 1">
    <g>
      <circle class="cls-1" cx="36.42" cy="36.42" r="36.42"/>
      <g>
        <path class="cls-2" d="m34.86,39.25c.46-.4.9-.44,1.36-.26.62.23.82.59.66,1.24-.2.81-.45,1.62-.65,2.43-.31,1.24-.6,2.49-.87,3.74-.12.54-.16,1.1.06,1.7.1-.15.23-.29.3-.45.81-1.69,1.63-3.37,2.4-5.07,1.04-2.29,2.05-4.6,3.04-6.91.26-.6.4-1.25.57-1.89.08-.31.24-.51.55-.6.89-.26,1.79-.36,2.7-.18.64.12.78.41.59,1.02-.19.63-.42,1.25-.54,1.9-.31,1.71-.03,3.33.89,4.87.08-.09.15-.15.19-.23,1.09-2.01,2.23-4,3.26-6.04.4-.79.56-1.7.8-2.56.1-.37.31-.57.67-.67.83-.23,1.68-.29,2.53-.16.16.02.32.09.47.17.28.15.35.38.26.7-.22.72-.49,1.44-.62,2.17-.26,1.46-.07,2.89.62,4.23.19.36.38.72.55,1.09.11.25.22.27.46.16,2.5-1.12,5.1-1.49,7.79-.94,2.34.47,4.28,1.6,5.52,3.73.69,1.19.99,2.48.66,3.84-.35,1.44-1.31,2.37-2.64,2.92-.23.09-.56.24-.71-.07-.16-.32.21-.39.38-.55.41-.38.89-.71,1.22-1.15.77-1.04.7-2.18.15-3.3-.69-1.43-1.88-2.33-3.34-2.84-2.75-.95-5.52-1-8.29-.06-.29.1-.32.23-.23.5.31.93.59,1.88.28,2.85-.18.57-.46,1.15-.82,1.61-1.15,1.46-2.72,2.29-4.5,2.73-1.11.27-1.93-.42-1.93-1.56,0-1.1.41-2.08.99-3,.65-1.03,1.45-1.94,2.38-2.72.23-.19.26-.34.12-.6-.75-1.33-1.18-2.77-1.46-4.27-.02-.08-.05-.15-.09-.3-.08.12-.13.19-.17.27-1.1,1.88-2.19,3.77-3.31,5.64-.17.29-.21.5-.1.82.2.56.39,1.14.49,1.72.33,2.06-.44,3.64-2.18,4.75-1.17.74-2.44,1.22-3.84,1.32-.37.02-.75.02-1.11-.04-.83-.15-1.16-.8-.78-1.55.19-.37.45-.71.71-1.03.91-1.13,1.85-2.23,2.77-3.36.29-.35.56-.72.8-1.1.08-.12.07-.33.04-.48-.04-.18-.15-.35-.24-.52-.74-1.35-1.18-2.8-1.46-4.31-.01-.06-.03-.11-.07-.24-.07.13-.12.2-.15.28-1.52,3.83-3.3,7.53-5.36,11.09-.37.64-.89,1.23-1.44,1.72-.92.81-2,.5-2.46-.64-.35-.88-.35-1.8-.3-2.73.01-.29.04-.57,0-.88-.15.35-.29.71-.46,1.06-.55,1.11-1.07,2.22-1.67,3.3-.44.79-1.14,1.24-2.1,1.19-.7-.03-1.25-.31-1.66-.86-.88-1.2-1.3-2.58-1.48-4.04-.22-1.82.11-3.58.6-5.32.03-.11.06-.22.12-.42-.24.13-.41.21-.57.3-.88.51-1.77,1.02-2.65,1.52-.16.09-.26.17-.16.39.79,1.77.87,3.64.54,5.5-.66,3.82-2.85,6.48-6.41,7.98-1.82.77-3.72.87-5.64.36-.67-.18-1.12-.64-1.48-1.19-.94-1.43-1-2.98-.58-4.59.45-1.7,1.53-2.96,2.82-4.08,1.97-1.71,4.19-3.03,6.5-4.22.21-.11.42-.22.69-.37-.26-.21-.46-.39-.68-.55-1.65-1.18-3.31-2.33-4.95-3.52-1.71-1.24-3.35-2.57-4.65-4.26-.5-.65-.93-1.37-1.32-2.09-.83-1.56-.86-3.18-.29-4.84.82-2.38,2.26-4.35,3.99-6.12,2.71-2.78,5.91-4.87,9.35-6.62,2.56-1.3,5.19-2.44,7.95-3.22,3.54-1,7.14-1.32,10.77-.54,1.4.3,2.74.8,3.95,1.59,2.14,1.4,3.14,3.39,3.05,5.94-.08,2.48-1.05,4.63-2.5,6.58-2.34,3.15-5.47,5.14-9.23,6.18-2.53.7-5.09,1.05-7.72.79-1.77-.18-3.35-.79-4.63-2.07-.46-.46-.83-.97-.93-1.63-.02-.15.05-.37.16-.46.07-.06.34,0,.43.1,1.53,1.67,3.52,2.12,5.64,2,4.58-.25,8.65-1.84,12.04-4.98,1.39-1.29,2.53-2.77,3.07-4.62.2-.69.29-1.44.27-2.16-.03-1.28-.73-2.2-1.84-2.81-1.39-.76-2.91-1.01-4.47-1.07-3.07-.11-6.01.51-8.87,1.56-4.04,1.49-7.78,3.54-11.17,6.21-1.53,1.2-2.89,2.56-3.87,4.26-.87,1.51-1.31,3.12-1,4.86.26,1.46,1.04,2.67,2.1,3.65,1.19,1.11,2.47,2.12,3.71,3.18,1.26,1.07,2.51,2.15,3.78,3.21.08.07.27.1.36.05,1.96-1.06,3.92-2.13,5.87-3.21.14-.08.25-.22.35-.35,1.12-1.41,2.42-2.6,4.14-3.23.49-.18,1.05-.23,1.58-.21.76.03,1.24.52,1.49,1.22.24.65.24,1.31.19,1.99-.02.21-.04.42-.07.74Zm-14.51,5.76c-.11.02-.14.02-.16.03-1.91,1.12-3.78,2.33-5.43,3.82-.88.79-1.57,1.71-1.99,2.82-.25.67-.41,1.36-.28,2.08.13.7.54,1.1,1.25,1.11.5,0,1.02-.03,1.49-.18,3.51-1.09,5.9-4.96,5.33-8.59-.06-.36-.14-.72-.21-1.09Zm12.96-6.73c-.04-.47-.23-.67-.66-.56-.31.08-.61.22-.88.4-.82.53-1.34,1.32-1.83,2.14-1.23,2.06-1.89,4.27-1.73,6.68.04.55.19,1.11.37,1.63.15.42.46.45.73.1.29-.38.57-.78.74-1.22.88-2.23,1.75-4.46,2.57-6.71.29-.79.46-1.63.68-2.45Zm19.86,4.33c-.06.02-.09.03-.12.05-1.1,1.01-1.85,2.24-2.26,3.68-.02.07-.03.14-.04.21-.04.32.07.42.36.27.34-.17.69-.34.99-.57,1.11-.84,1.58-2.49,1.07-3.65Zm-8.32,2.86c-1,1.17-1.99,2.33-3.01,3.51,1.21.08,3.21-2.28,3.01-3.51Z"/>
        <g>
          <path class="cls-1" d="m20.35,45.01c.07.38.16.73.21,1.09.57,3.63-1.82,7.5-5.33,8.59-.47.15-.99.18-1.49.18-.71,0-1.12-.41-1.25-1.11-.14-.72.02-1.41.28-2.08.42-1.11,1.11-2.03,1.99-2.82,1.66-1.49,3.52-2.7,5.43-3.82.02-.01.05-.01.16-.03Z"/>
          <path class="cls-1" d="m33.31,38.28c-.22.82-.39,1.66-.68,2.45-.83,2.25-1.69,4.48-2.57,6.71-.17.44-.46.84-.74,1.22-.27.36-.58.33-.73-.1-.19-.52-.33-1.08-.37-1.63-.16-2.41.5-4.62,1.73-6.68.49-.82,1.01-1.61,1.83-2.14.27-.17.57-.32.88-.4.43-.11.62.09.66.56Z"/>
          <path class="cls-1" d="m53.17,42.62c.51,1.16.04,2.8-1.07,3.65-.3.23-.65.4-.99.57-.29.14-.39.05-.36-.27,0-.07.02-.14.04-.21.41-1.44,1.16-2.67,2.26-3.68.02-.02.06-.03.12-.05Z"/>
          <path class="cls-1" d="m44.85,45.48c.2,1.23-1.79,3.59-3.01,3.51,1.01-1.18,2.01-2.34,3.01-3.51Z"/>
        </g>
      </g>
    </g>
  </g>
</svg>